<?xml version="1.0" standalone="no"?>
<!DOCTYPE svg PUBLIC "-//W3C//DTD SVG 20010904//EN"
 "http://www.w3.org/TR/2001/REC-SVG-20010904/DTD/svg10.dtd">
<svg version="1.0" xmlns="http://www.w3.org/2000/svg"
 width="300.000000pt" height="300.000000pt" viewBox="0 0 300.000000 300.000000"
 preserveAspectRatio="xMidYMid meet">
<metadata>
Created by potrace 1.10, written by Peter Selinger 2001-2011
</metadata>
<g transform="translate(0.000000,300.000000) scale(0.100000,-0.100000)"
fill="#000000" stroke="none">
<path d="M595 2306 c-68 -30 -70 -38 -71 -245 l-1 -186 6 185 c3 102 10 191
14 198 5 7 26 21 48 33 38 19 55 20 299 17 195 -2 262 -6 272 -16 10 -10 10
-14 1 -20 -9 -6 -10 -17 -2 -45 6 -22 9 -115 7 -223 -2 -101 0 -184 3 -184 9
0 19 39 19 76 0 17 7 37 15 44 23 19 22 281 -1 319 -32 55 -38 56 -319 58
-202 2 -267 0 -290 -11z"/>
<path d="M600 2061 c-16 -31 11 -71 49 -71 19 0 32 37 21 64 -12 32 -54 36
-70 7z"/>
<path d="M722 2068 c-18 -18 -15 -43 9 -64 24 -22 52 -10 57 25 6 41 -38 67
-66 39z"/>
<path d="M837 2073 c-15 -14 -7 -63 12 -73 39 -21 73 19 51 60 -10 19 -49 28
-63 13z"/>
<path d="M952 2068 c-29 -29 7 -86 46 -74 28 9 35 35 17 62 -17 26 -44 31 -63
12z"/>
<path d="M1499 2029 c13 -5 36 -10 50 -10 41 -2 81 -20 81 -37 0 -12 4 -11 16
6 8 12 23 22 33 22 17 0 54 -31 49 -41 -2 -2 2 2 9 9 8 10 16 11 31 3 11 -6
22 -8 24 -5 3 2 11 -2 18 -11 7 -8 22 -15 34 -15 17 0 18 -2 6 -10 -11 -7 -6
-8 18 -4 19 4 32 2 32 -4 0 -5 17 -17 38 -25 20 -9 55 -33 76 -54 22 -21 36
-31 32 -23 -4 8 3 2 17 -15 14 -16 37 -43 51 -60 31 -35 32 -45 9 -46 -15 0
-15 -2 2 -8 11 -5 26 -6 33 -4 7 3 12 -3 12 -17 0 -12 13 -40 28 -63 46 -69
70 -128 83 -204 15 -90 7 -174 -20 -212 -34 -48 -26 -107 11 -74 17 15 17 15
3 -14 -8 -16 -26 -35 -40 -43 -22 -12 -23 -14 -8 -25 14 -10 13 -16 -11 -60
-78 -140 -135 -203 -251 -281 -107 -72 -254 -114 -398 -114 -77 1 -175 16
-223 36 -43 18 -204 129 -204 142 0 6 -6 12 -14 12 -16 0 -95 91 -116 134 -8
17 -28 52 -43 78 -55 92 -75 275 -49 448 7 47 17 89 22 94 5 5 6 14 4 21 -3 7
-1 16 5 20 28 17 8 53 -71 130 -46 44 -69 65 -53 46 17 -19 51 -55 77 -80 l47
-46 -26 -75 c-14 -41 -28 -104 -31 -140 -3 -43 -11 -69 -21 -77 -13 -10 -14
-14 -2 -22 9 -6 10 -11 2 -15 -6 -4 -9 -11 -7 -15 3 -4 7 -29 11 -56 28 -238
158 -446 356 -571 111 -70 137 -79 268 -95 83 -10 118 -10 184 1 241 38 442
178 545 380 24 47 47 90 52 95 20 24 43 219 35 299 -4 45 -8 92 -9 106 -1 14
-5 32 -8 40 -4 8 -14 38 -22 65 -9 28 -26 66 -39 85 -12 19 -31 53 -42 75 -33
65 -170 196 -245 232 -143 69 -296 110 -334 91 -13 -7 -16 -7 -12 1 5 8 -14
11 -61 10 -54 0 -63 -2 -44 -10z"/>
<path d="M1375 2020 c-3 -5 -13 -6 -22 -3 -12 5 -14 3 -8 -6 6 -10 2 -11 -16
-7 -20 6 -21 5 -7 -4 13 -8 25 -7 48 5 30 16 38 25 21 25 -6 0 -12 -4 -16 -10z"/>
<path d="M1425 2006 c-22 -7 -62 -23 -90 -36 -27 -13 -63 -26 -80 -29 -25 -6
-31 -13 -36 -43 -13 -84 -64 -123 -158 -123 l-66 0 1 -81 c1 -87 9 -134 23
-134 5 0 17 34 27 75 18 78 32 95 84 108 14 4 46 23 71 44 36 31 44 42 36 54
-8 12 -4 26 13 54 19 31 27 36 49 32 18 -4 44 6 85 30 33 19 71 36 85 38 14 1
29 3 34 4 4 0 7 6 7 11 0 13 -36 12 -85 -4z m-394 -273 c2 -42 -4 -99 -12
-113 -5 -10 -9 11 -9 58 0 41 4 72 10 72 6 0 10 -8 11 -17z"/>
<path d="M1447 1974 c-15 -15 -6 -24 24 -24 20 0 29 4 27 13 -5 14 -40 21 -51
11z"/>
<path d="M1554 1968 c-8 -12 24 -40 40 -35 5 2 12 9 14 16 3 9 -2 11 -17 6
-16 -5 -20 -3 -15 9 7 18 -11 22 -22 4z"/>
<path d="M1680 1971 c11 -8 12 -11 2 -11 -10 0 -10 -4 2 -16 12 -12 13 -20 6
-35 -6 -10 -15 -19 -20 -19 -12 0 -70 -50 -70 -61 0 -4 10 1 23 12 12 11 37
32 56 48 27 22 33 32 26 47 -5 10 -9 23 -9 28 -1 5 -8 11 -16 13 -13 4 -13 3
0 -6z"/>
<path d="M1265 1900 c-3 -5 -4 -14 0 -20 7 -11 55 8 55 22 0 11 -48 10 -55 -2z"/>
<path d="M1480 1878 c0 -25 -4 -28 -33 -28 -18 0 -38 -5 -45 -12 -18 -18 -16
7 4 37 9 14 12 25 7 25 -17 0 -53 -46 -53 -67 0 -12 -12 -30 -27 -41 -25 -18
-26 -21 -10 -27 12 -5 29 4 57 29 22 20 49 36 59 36 30 0 51 11 51 26 0 7 14
20 30 29 17 9 30 17 30 18 0 2 -16 3 -35 3 -32 0 -35 -3 -35 -28z"/>
<path d="M531 1862 c-1 -24 19 -51 49 -67 21 -11 56 -14 122 -13 l93 2 -102 5
c-106 6 -134 18 -154 66 -4 11 -8 14 -8 7z"/>
<path d="M1661 1805 c-36 -14 -67 -22 -69 -20 -3 3 -17 -19 -33 -48 -27 -52
-27 -52 -78 -53 -65 -2 -81 -9 -81 -33 0 -13 -9 -23 -24 -27 -18 -4 -27 -16
-34 -47 -6 -23 -9 -43 -7 -45 9 -9 44 20 47 39 2 12 12 27 23 33 11 6 22 14
25 17 17 19 86 17 74 -2 -6 -10 9 -12 19 -2 4 3 -2 12 -13 20 -27 19 -25 33 5
33 20 0 29 9 42 40 11 24 29 45 48 54 76 37 140 57 166 54 15 -3 26 -1 23 4
-9 15 -68 7 -133 -17z"/>
<path d="M1250 1791 c0 -12 -14 -35 -32 -52 -37 -34 -30 -38 17 -9 l32 20 6
-41 c3 -22 8 -43 12 -47 8 -8 74 27 97 52 10 11 18 29 17 40 0 17 -2 16 -10
-6 -12 -30 -72 -73 -93 -65 -7 3 -16 28 -19 58 -7 54 -27 93 -27 50z"/>
<path d="M1985 1725 c24 -8 114 -11 109 -3 -3 4 -31 8 -62 7 -31 0 -52 -2 -47
-4z"/>
<path d="M1700 1690 c-13 -8 -13 -11 2 -26 16 -17 18 -17 24 0 9 23 -7 38 -26
26z"/>
<path d="M1600 1669 c-9 -16 -8 -26 4 -44 20 -31 20 -35 -3 -35 -28 0 -51 -10
-51 -23 0 -7 4 -7 12 1 17 17 48 15 69 -4 24 -22 53 -11 44 16 -5 16 -2 20 19
20 14 0 44 -7 66 -16 33 -13 46 -14 67 -5 14 6 28 9 31 6 11 -11 -37 -80 -58
-83 -22 -4 -73 -70 -64 -84 12 -19 -37 -6 -65 18 -41 34 -59 22 -26 -18 29
-34 31 -46 10 -54 -9 -4 -21 -16 -27 -28 -10 -20 -10 -19 13 3 14 13 43 29 64
37 33 11 42 11 55 0 9 -8 28 -12 46 -9 56 9 112 -34 154 -114 27 -53 36 -56
14 -5 -9 20 -23 53 -30 72 -7 19 -13 31 -14 27 -1 -18 -60 29 -60 48 0 16 -2
17 -10 5 -5 -8 -10 -11 -10 -6 0 5 -6 4 -12 -2 -12 -9 -47 -8 -75 3 -33 12 9
95 47 95 21 0 49 45 59 95 4 17 16 34 29 40 24 11 31 31 8 22 -9 -4 -17 1 -19
11 -4 13 -5 12 -6 -4 -1 -21 -35 -58 -61 -66 -8 -3 -37 3 -64 14 -30 12 -60
17 -77 13 -35 -8 -56 23 -39 55 9 17 8 20 -9 20 -11 0 -25 -9 -31 -21z"/>
<path d="M1197 1647 c-12 -13 -30 -33 -39 -45 -10 -12 -23 -22 -29 -22 -7 0 0
12 15 26 14 15 26 31 26 36 0 5 -14 -7 -31 -27 -26 -29 -29 -38 -19 -50 7 -8
16 -15 20 -15 18 0 95 74 102 96 8 32 -15 32 -45 1z"/>
<path d="M1270 1640 c0 -6 6 -19 12 -30 10 -16 10 -24 0 -40 -10 -17 -10 -21
4 -27 19 -7 34 13 27 36 -14 46 -26 71 -34 71 -5 0 -9 -5 -9 -10z"/>
<path d="M1208 1543 c-2 -15 -6 -28 -8 -33 -7 -19 -7 -39 1 -34 5 3 6 10 3 16
-5 7 4 9 25 6 22 -3 28 -1 21 6 -5 5 -10 18 -10 28 0 17 -28 26 -32 11z"/>
<path d="M1398 1539 c-10 -5 -18 -7 -18 -4 0 3 -6 0 -14 -7 -10 -9 -11 -15 -2
-20 16 -11 28 -10 21 2 -9 14 1 12 45 -9 l40 -19 0 24 c0 21 4 23 36 21 25 -1
38 3 42 13 4 12 3 13 -10 2 -9 -7 -22 -10 -29 -8 -36 11 -96 14 -111 5z"/>
<path d="M1936 1498 c-15 -15 -32 -26 -36 -23 -4 3 -11 -2 -14 -11 -10 -26 -7
-27 23 -2 15 12 36 28 46 33 10 6 16 15 14 20 -2 6 -17 -2 -33 -17z"/>
<path d="M1430 1440 c6 -11 8 -20 5 -20 -3 0 1 -12 9 -27 7 -16 16 -46 19 -67
4 -30 16 -50 53 -85 44 -42 45 -36 3 14 -27 33 -66 168 -40 140 5 -6 27 -46
50 -89 22 -44 41 -74 41 -68 0 7 11 12 25 12 14 0 25 4 25 8 0 5 -13 7 -28 4
-26 -3 -32 2 -68 69 -21 40 -45 86 -52 101 -7 17 -20 28 -32 28 -18 0 -19 -3
-10 -20z"/>
<path d="M1392 1331 c-1 -29 -7 -71 -14 -93 -9 -31 -9 -41 2 -51 10 -9 11 -9
5 1 -4 8 -2 32 5 55 6 23 10 65 7 92 l-3 50 -2 -54z"/>
<path d="M1765 1310 c-21 -41 -84 -80 -135 -85 -51 -5 -53 -7 -37 -29 11 -15
19 -16 51 -8 30 9 38 8 43 -4 8 -20 -42 -99 -83 -130 -19 -15 -46 -46 -59 -68
-21 -37 -23 -46 -13 -84 6 -23 14 -42 18 -42 4 0 3 18 -2 40 -6 22 -8 50 -5
62 4 13 41 59 83 103 73 76 76 81 70 117 -5 27 -2 40 10 50 9 7 30 26 48 43
17 16 34 28 39 27 11 -3 9 26 -3 33 -5 3 -16 -8 -25 -25z"/>
<path d="M1014 1298 c-4 -7 -3 -8 5 -4 6 4 25 -4 43 -19 36 -30 55 -29 76 5
l16 25 -25 -23 -26 -22 -37 25 c-42 29 -42 29 -52 13z"/>
<path d="M2158 1222 c-3 -22 1 -31 19 -39 13 -6 23 -10 23 -9 0 1 -8 18 -19
39 l-19 37 -4 -28z"/>
<path d="M1138 1217 c15 -16 19 -30 15 -46 -4 -17 -3 -22 5 -17 7 4 12 15 12
24 0 22 -27 62 -42 62 -6 0 -2 -10 10 -23z"/>
<path d="M991 1200 c-1 -30 4 -38 32 -53 22 -12 43 -16 61 -11 19 4 33 1 49
-12 12 -10 5 -1 -15 20 -35 35 -40 36 -73 27 -39 -10 -40 -9 -48 39 -3 19 -5
16 -6 -10z"/>
<path d="M1558 1141 c-16 -15 -38 -32 -50 -38 -13 -6 -34 -16 -48 -22 -25 -11
-25 -11 4 -6 35 7 111 58 119 80 8 20 7 19 -25 -14z"/>
<path d="M1420 1075 c0 -26 -46 -41 -84 -27 -53 20 -145 10 -154 -16 -2 -8 7
-7 32 3 45 19 89 19 125 1 25 -13 31 -13 59 4 18 11 32 27 32 35 0 8 -2 15 -5
15 -3 0 -5 -7 -5 -15z"/>
<path d="M1420 876 c0 -9 6 -13 13 -10 7 2 24 -7 37 -21 13 -14 27 -25 31 -25
11 0 -37 47 -61 60 -16 8 -20 8 -20 -4z"/>
<path d="M1620 850 c-40 -33 -27 -41 15 -9 22 18 29 20 37 8 7 -11 8 -10 6 5
-5 30 -20 29 -58 -4z"/>
</g>
</svg>
